<svg width="36" height="32" viewBox="0 0 36 32" fill="none" xmlns="http://www.w3.org/2000/svg">
<rect x="1.31836" y="0.5" width="33.5015" height="31" rx="15.5" fill="white" stroke="black"/>
<path d="M21.2601 11.0667C19.9591 11.0667 18.7946 11.6533 18.0687 12.5533C17.3427 11.6533 16.1783 11.0667 14.8773 11.0667C12.6706 11.0667 10.8809 12.7333 10.8809 14.7933C10.8809 15.5867 11.0174 16.32 11.2546 17C12.3903 20.3333 15.8908 22.3267 17.623 22.8733C17.8674 22.9533 18.2699 22.9533 18.5143 22.8733C20.2466 22.3267 23.7471 20.3333 24.8827 17C25.1199 16.32 25.2565 15.5867 25.2565 14.7933C25.2565 12.7333 23.4667 11.0667 21.2601 11.0667Z" fill="#FF7E3A"/>
</svg>
