<svg width="32" height="33" viewBox="0 0 32 33" fill="none" xmlns="http://www.w3.org/2000/svg">
<rect x="0.5" y="1" width="31" height="31" rx="7.5" fill="white" stroke="black"/>
<path d="M18.96 11.5667C17.7533 11.5667 16.6733 12.1533 16 13.0533C15.3266 12.1533 14.2466 11.5667 13.04 11.5667C10.9933 11.5667 9.33331 13.2333 9.33331 15.2933C9.33331 16.0867 9.45998 16.82 9.67998 17.5C10.7333 20.8333 13.98 22.8267 15.5866 23.3733C15.8133 23.4533 16.1866 23.4533 16.4133 23.3733C18.02 22.8267 21.2666 20.8333 22.32 17.5C22.54 16.82 22.6666 16.0867 22.6666 15.2933C22.6666 13.2333 21.0066 11.5667 18.96 11.5667Z" fill="#FF7E3A"/>
</svg>
