<svg width="36" height="32" viewBox="0 0 36 32" fill="none" xmlns="http://www.w3.org/2000/svg">
<rect x="1.09717" y="0.5" width="33.5015" height="31" rx="15.5" fill="white" stroke="black"/>
<path d="M21.823 13.18C21.7727 13.1733 21.7224 13.1733 21.672 13.18C20.5579 13.1467 19.6738 12.3 19.6738 11.26C19.6738 10.2 20.6011 9.33334 21.7511 9.33334C22.894 9.33334 23.8284 10.1933 23.8284 11.26C23.8212 12.3 22.9371 13.1467 21.823 13.18Z" fill="#99938F"/>
<path d="M24.166 17.8C23.361 18.3 22.2325 18.4867 21.1902 18.36C21.4634 17.8133 21.6071 17.2067 21.6143 16.5667C21.6143 15.9 21.4562 15.2667 21.1543 14.7133C22.2181 14.58 23.3466 14.7667 24.1588 15.2667C25.2945 15.96 25.2945 17.1 24.166 17.8Z" fill="#99938F"/>
<path d="M13.8517 13.18C13.902 13.1733 13.9524 13.1733 14.0027 13.18C15.1168 13.1467 16.0009 12.3 16.0009 11.26C16.0009 10.1933 15.0737 9.33334 13.9236 9.33334C12.7807 9.33334 11.8535 10.1933 11.8535 11.26C11.8535 12.3 12.7376 13.1467 13.8517 13.18Z" fill="#99938F"/>
<path d="M13.9308 16.5667C13.9308 17.2133 14.0817 17.8267 14.3549 18.38C13.3414 18.48 12.2848 18.28 11.5085 17.8067C10.3728 17.1067 10.3728 15.9667 11.5085 15.2667C12.2776 14.7867 13.363 14.5933 14.3836 14.7C14.0889 15.26 13.9308 15.8933 13.9308 16.5667Z" fill="#99938F"/>
<path d="M17.9342 18.58C17.8767 18.5733 17.812 18.5733 17.7473 18.58C16.4248 18.54 15.3682 17.5333 15.3682 16.2933C15.3754 15.0267 16.4751 14 17.848 14C19.2136 14 20.3206 15.0267 20.3206 16.2933C20.3134 17.5333 19.264 18.54 17.9342 18.58Z" fill="#99938F"/>
<path d="M15.5982 19.96C14.5128 20.6333 14.5128 21.74 15.5982 22.4067C16.8345 23.1733 18.8615 23.1733 20.0978 22.4067C21.1831 21.7333 21.1831 20.6267 20.0978 19.96C18.8687 19.1933 16.8417 19.1933 15.5982 19.96Z" fill="#99938F"/>
</svg>
