<svg width="36" height="32" viewBox="0 0 36 32" fill="none" xmlns="http://www.w3.org/2000/svg">
<rect x="1.01855" y="0.5" width="33.5015" height="31" rx="15.5" fill="white" stroke="black"/>
<path d="M21.7444 13.18C21.6941 13.1733 21.6437 13.1733 21.5934 13.18C20.4793 13.1467 19.5952 12.3 19.5952 11.26C19.5952 10.2 20.5224 9.33333 21.6725 9.33333C22.8154 9.33333 23.7498 10.1933 23.7498 11.26C23.7426 12.3 22.8585 13.1467 21.7444 13.18Z" fill="#99938F"/>
<path d="M24.0874 17.8C23.2823 18.3 22.1539 18.4867 21.1116 18.36C21.3848 17.8133 21.5285 17.2067 21.5357 16.5667C21.5357 15.9 21.3776 15.2667 21.0757 14.7133C22.1395 14.58 23.268 14.7667 24.0802 15.2667C25.2159 15.96 25.2159 17.1 24.0874 17.8Z" fill="#99938F"/>
<path d="M13.7731 13.18C13.8234 13.1733 13.8737 13.1733 13.9241 13.18C15.0382 13.1467 15.9223 12.3 15.9223 11.26C15.9223 10.1933 14.995 9.33333 13.845 9.33333C12.7021 9.33333 11.7749 10.1933 11.7749 11.26C11.7749 12.3 12.659 13.1467 13.7731 13.18Z" fill="#99938F"/>
<path d="M13.8522 16.5667C13.8522 17.2133 14.0031 17.8267 14.2763 18.38C13.2628 18.48 12.2062 18.28 11.4299 17.8067C10.2942 17.1067 10.2942 15.9667 11.4299 15.2667C12.199 14.7867 13.2843 14.5933 14.305 14.7C14.0103 15.26 13.8522 15.8933 13.8522 16.5667Z" fill="#99938F"/>
<path d="M17.8556 18.58C17.7981 18.5733 17.7334 18.5733 17.6687 18.58C16.3462 18.54 15.2896 17.5333 15.2896 16.2933C15.2967 15.0267 16.3965 14 17.7693 14C19.135 14 20.242 15.0267 20.242 16.2933C20.2348 17.5333 19.1853 18.54 17.8556 18.58Z" fill="#99938F"/>
<path d="M15.5196 19.96C14.4342 20.6333 14.4342 21.74 15.5196 22.4067C16.7559 23.1733 18.7829 23.1733 20.0192 22.4067C21.1045 21.7333 21.1045 20.6267 20.0192 19.96C18.79 19.1933 16.7631 19.1933 15.5196 19.96Z" fill="#99938F"/>
</svg>
