<svg width="32" height="33" viewBox="0 0 32 33" fill="none" xmlns="http://www.w3.org/2000/svg">
<rect x="0.5" y="1" width="31" height="31" rx="7.5" fill="white" stroke="black"/>
<path d="M19.6867 13.68C19.64 13.6733 19.5934 13.6733 19.5467 13.68C18.5134 13.6467 17.6934 12.8 17.6934 11.76C17.6934 10.7 18.5534 9.83334 19.62 9.83334C20.68 9.83334 21.5467 10.6933 21.5467 11.76C21.54 12.8 20.72 13.6467 19.6867 13.68Z" fill="#99938F"/>
<path d="M21.86 18.3C21.1133 18.8 20.0666 18.9867 19.1 18.86C19.3533 18.3133 19.4866 17.7067 19.4933 17.0667C19.4933 16.4 19.3467 15.7667 19.0667 15.2133C20.0533 15.08 21.1 15.2667 21.8533 15.7667C22.9067 16.46 22.9067 17.6 21.86 18.3Z" fill="#99938F"/>
<path d="M12.2933 13.68C12.34 13.6733 12.3867 13.6733 12.4333 13.68C13.4667 13.6467 14.2867 12.8 14.2867 11.76C14.2867 10.6933 13.4267 9.83334 12.36 9.83334C11.3 9.83334 10.44 10.6933 10.44 11.76C10.44 12.8 11.26 13.6467 12.2933 13.68Z" fill="#99938F"/>
<path d="M12.3667 17.0667C12.3667 17.7133 12.5067 18.3267 12.76 18.88C11.82 18.98 10.84 18.78 10.12 18.3067C9.06668 17.6067 9.06668 16.4667 10.12 15.7667C10.8334 15.2867 11.84 15.0933 12.7867 15.2C12.5134 15.76 12.3667 16.3933 12.3667 17.0667Z" fill="#99938F"/>
<path d="M16.08 19.08C16.0267 19.0733 15.9667 19.0733 15.9067 19.08C14.68 19.04 13.7 18.0333 13.7 16.7933C13.7067 15.5267 14.7267 14.5 16 14.5C17.2667 14.5 18.2933 15.5267 18.2933 16.7933C18.2867 18.0333 17.3133 19.04 16.08 19.08Z" fill="#99938F"/>
<path d="M13.9133 20.46C12.9067 21.1333 12.9067 22.24 13.9133 22.9067C15.06 23.6733 16.94 23.6733 18.0867 22.9067C19.0933 22.2333 19.0933 21.1267 18.0867 20.46C16.9467 19.6933 15.0667 19.6933 13.9133 20.46Z" fill="#99938F"/>
</svg>
