<svg width="36" height="32" viewBox="0 0 36 32" fill="none" xmlns="http://www.w3.org/2000/svg">
<rect x="1.24023" y="0.5" width="33.5015" height="31" rx="15.5" fill="white" stroke="black"/>
<path d="M21.1824 11.0667C19.8814 11.0667 18.717 11.6533 17.991 12.5533C17.2651 11.6533 16.1006 11.0667 14.7996 11.0667C12.593 11.0667 10.8032 12.7333 10.8032 14.7933C10.8032 15.5867 10.9398 16.32 11.177 17C12.3127 20.3333 15.8131 22.3267 17.5454 22.8733C17.7898 22.9533 18.1923 22.9533 18.4367 22.8733C20.1689 22.3267 23.6694 20.3333 24.8051 17C25.0423 16.32 25.1789 15.5867 25.1789 14.7933C25.1789 12.7333 23.3891 11.0667 21.1824 11.0667Z" fill="#FF7E3A"/>
</svg>
