<svg width="32" height="32" viewBox="0 0 32 32" fill="none" xmlns="http://www.w3.org/2000/svg">
<rect x="0.5" y="0.5" width="31" height="31" rx="7.5" fill="white" stroke="black"/>
<path d="M18.96 11.0667C17.7533 11.0667 16.6733 11.6533 16 12.5533C15.3266 11.6533 14.2466 11.0667 13.04 11.0667C10.9933 11.0667 9.33331 12.7333 9.33331 14.7933C9.33331 15.5866 9.45998 16.32 9.67998 17C10.7333 20.3333 13.98 22.3266 15.5866 22.8733C15.8133 22.9533 16.1866 22.9533 16.4133 22.8733C18.02 22.3266 21.2666 20.3333 22.32 17C22.54 16.32 22.6666 15.5866 22.6666 14.7933C22.6666 12.7333 21.0066 11.0667 18.96 11.0667Z" fill="#FF7E3A"/>
</svg>
