<svg width="48" height="48" viewBox="0 0 48 48" fill="none" xmlns="http://www.w3.org/2000/svg">
<path d="M44.25 15.75H3.75C3.15326 15.75 2.58097 15.5129 2.15901 15.091C1.73705 14.669 1.5 14.0967 1.5 13.5C1.5 12.9033 1.73705 12.331 2.15901 11.909C2.58097 11.4871 3.15326 11.25 3.75 11.25H44.25C44.8467 11.25 45.419 11.4871 45.841 11.909C46.2629 12.331 46.5 12.9033 46.5 13.5C46.5 14.0967 46.2629 14.669 45.841 15.091C45.419 15.5129 44.8467 15.75 44.25 15.75ZM36.75 26.25H11.25C10.6533 26.25 10.081 26.0129 9.65901 25.591C9.23705 25.169 9 24.5967 9 24C9 23.4033 9.23705 22.831 9.65901 22.409C10.081 21.9871 10.6533 21.75 11.25 21.75H36.75C37.3467 21.75 37.919 21.9871 38.341 22.409C38.7629 22.831 39 23.4033 39 24C39 24.5967 38.7629 25.169 38.341 25.591C37.919 26.0129 37.3467 26.25 36.75 26.25ZM27.75 36.75H20.25C19.6533 36.75 19.081 36.5129 18.659 36.091C18.2371 35.669 18 35.0967 18 34.5C18 33.9033 18.2371 33.331 18.659 32.909C19.081 32.4871 19.6533 32.25 20.25 32.25H27.75C28.3467 32.25 28.919 32.4871 29.341 32.909C29.7629 33.331 30 33.9033 30 34.5C30 35.0967 29.7629 35.669 29.341 36.091C28.919 36.5129 28.3467 36.75 27.75 36.75Z" fill="black"/>
</svg>
