<svg width="55" height="55" viewBox="0 0 55 55" fill="none" xmlns="http://www.w3.org/2000/svg">
<path d="M0 20.625C0 18.8016 0.724328 17.053 2.01364 15.7636C3.30295 14.4743 5.05164 13.75 6.875 13.75H48.125C49.9484 13.75 51.697 14.4743 52.9864 15.7636C54.2757 17.053 55 18.8016 55 20.625V37.8125C55 39.6359 54.2757 41.3845 52.9864 42.6739C51.697 43.9632 49.9484 44.6875 48.125 44.6875H6.875C5.05164 44.6875 3.30295 43.9632 2.01364 42.6739C0.724328 41.3845 0 39.6359 0 37.8125V20.625ZM44.6875 21.4844V23.2031C44.6875 23.6775 45.0725 24.0625 45.5469 24.0625H47.2656C47.4935 24.0625 47.7121 23.972 47.8733 23.8108C48.0345 23.6496 48.125 23.431 48.125 23.2031V21.4844C48.125 21.2565 48.0345 21.0379 47.8733 20.8767C47.7121 20.7155 47.4935 20.625 47.2656 20.625H45.5469C45.319 20.625 45.1004 20.7155 44.9392 20.8767C44.778 21.0379 44.6875 21.2565 44.6875 21.4844ZM7.73438 27.5C7.50645 27.5 7.28787 27.5905 7.12671 27.7517C6.96554 27.9129 6.875 28.1315 6.875 28.3594V30.0781C6.875 30.5525 7.26 30.9375 7.73438 30.9375H9.45312C9.68105 30.9375 9.89963 30.847 10.0608 30.6858C10.222 30.5246 10.3125 30.306 10.3125 30.0781V28.3594C10.3125 28.1315 10.222 27.9129 10.0608 27.7517C9.89963 27.5905 9.68105 27.5 9.45312 27.5H7.73438ZM13.75 28.3594V30.0781C13.75 30.5525 14.135 30.9375 14.6094 30.9375H16.3281C16.556 30.9375 16.7746 30.847 16.9358 30.6858C17.097 30.5246 17.1875 30.306 17.1875 30.0781V28.3594C17.1875 28.1315 17.097 27.9129 16.9358 27.7517C16.7746 27.5905 16.556 27.5 16.3281 27.5H14.6094C14.3815 27.5 14.1629 27.5905 14.0017 27.7517C13.8405 27.9129 13.75 28.1315 13.75 28.3594ZM21.4844 27.5C21.2565 27.5 21.0379 27.5905 20.8767 27.7517C20.7155 27.9129 20.625 28.1315 20.625 28.3594V30.0781C20.625 30.5525 21.01 30.9375 21.4844 30.9375H23.2031C23.431 30.9375 23.6496 30.847 23.8108 30.6858C23.972 30.5246 24.0625 30.306 24.0625 30.0781V28.3594C24.0625 28.1315 23.972 27.9129 23.8108 27.7517C23.6496 27.5905 23.431 27.5 23.2031 27.5H21.4844ZM27.5 28.3594V30.0781C27.5 30.5525 27.885 30.9375 28.3594 30.9375H30.0781C30.306 30.9375 30.5246 30.847 30.6858 30.6858C30.847 30.5246 30.9375 30.306 30.9375 30.0781V28.3594C30.9375 28.1315 30.847 27.9129 30.6858 27.7517C30.5246 27.5905 30.306 27.5 30.0781 27.5H28.3594C28.1315 27.5 27.9129 27.5905 27.7517 27.7517C27.5905 27.9129 27.5 28.1315 27.5 28.3594ZM45.5469 27.5C45.319 27.5 45.1004 27.5905 44.9392 27.7517C44.778 27.9129 44.6875 28.1315 44.6875 28.3594V30.0781C44.6875 30.5525 45.0725 30.9375 45.5469 30.9375H47.2656C47.4935 30.9375 47.7121 30.847 47.8733 30.6858C48.0345 30.5246 48.125 30.306 48.125 30.0781V28.3594C48.125 28.1315 48.0345 27.9129 47.8733 27.7517C47.7121 27.5905 47.4935 27.5 47.2656 27.5H45.5469ZM45.5469 34.375C45.319 34.375 45.1004 34.4655 44.9392 34.6267C44.778 34.7879 44.6875 35.0065 44.6875 35.2344V36.9531C44.6875 37.4275 45.0725 37.8125 45.5469 37.8125H47.2656C47.4935 37.8125 47.7121 37.722 47.8733 37.5608C48.0345 37.3996 48.125 37.181 48.125 36.9531V35.2344C48.125 35.0065 48.0345 34.7879 47.8733 34.6267C47.7121 34.4655 47.4935 34.375 47.2656 34.375H45.5469ZM35.2344 27.5C35.0065 27.5 34.7879 27.5905 34.6267 27.7517C34.4655 27.9129 34.375 28.1315 34.375 28.3594V30.0781C34.375 30.5525 34.76 30.9375 35.2344 30.9375H40.3906C40.6185 30.9375 40.8371 30.847 40.9983 30.6858C41.1595 30.5246 41.25 30.306 41.25 30.0781V28.3594C41.25 28.1315 41.1595 27.9129 40.9983 27.7517C40.8371 27.5905 40.6185 27.5 40.3906 27.5H35.2344ZM37.8125 35.2344V36.9531C37.8125 37.4275 38.1975 37.8125 38.6719 37.8125H40.3906C40.6185 37.8125 40.8371 37.722 40.9983 37.5608C41.1595 37.3996 41.25 37.181 41.25 36.9531V35.2344C41.25 35.0065 41.1595 34.7879 40.9983 34.6267C40.8371 34.4655 40.6185 34.375 40.3906 34.375H38.6719C38.444 34.375 38.2254 34.4655 38.0642 34.6267C37.903 34.7879 37.8125 35.0065 37.8125 35.2344ZM38.6719 20.625C38.444 20.625 38.2254 20.7155 38.0642 20.8767C37.903 21.0379 37.8125 21.2565 37.8125 21.4844V23.2031C37.8125 23.6775 38.1975 24.0625 38.6719 24.0625H40.3906C40.6185 24.0625 40.8371 23.972 40.9983 23.8108C41.1595 23.6496 41.25 23.431 41.25 23.2031V21.4844C41.25 21.2565 41.1595 21.0379 40.9983 20.8767C40.8371 20.7155 40.6185 20.625 40.3906 20.625H38.6719ZM30.9375 21.4844V23.2031C30.9375 23.6775 31.3225 24.0625 31.7969 24.0625H33.5156C33.7435 24.0625 33.9621 23.972 34.1233 23.8108C34.2845 23.6496 34.375 23.431 34.375 23.2031V21.4844C34.375 21.2565 34.2845 21.0379 34.1233 20.8767C33.9621 20.7155 33.7435 20.625 33.5156 20.625H31.7969C31.569 20.625 31.3504 20.7155 31.1892 20.8767C31.028 21.0379 30.9375 21.2565 30.9375 21.4844ZM24.9219 20.625C24.694 20.625 24.4754 20.7155 24.3142 20.8767C24.153 21.0379 24.0625 21.2565 24.0625 21.4844V23.2031C24.0625 23.6775 24.4475 24.0625 24.9219 24.0625H26.6406C26.8685 24.0625 27.0871 23.972 27.2483 23.8108C27.4095 23.6496 27.5 23.431 27.5 23.2031V21.4844C27.5 21.2565 27.4095 21.0379 27.2483 20.8767C27.0871 20.7155 26.8685 20.625 26.6406 20.625H24.9219ZM17.1875 21.4844V23.2031C17.1875 23.6775 17.5725 24.0625 18.0469 24.0625H19.7656C19.9935 24.0625 20.2121 23.972 20.3733 23.8108C20.5345 23.6496 20.625 23.431 20.625 23.2031V21.4844C20.625 21.2565 20.5345 21.0379 20.3733 20.8767C20.2121 20.7155 19.9935 20.625 19.7656 20.625H18.0469C17.819 20.625 17.6004 20.7155 17.4392 20.8767C17.278 21.0379 17.1875 21.2565 17.1875 21.4844ZM7.73438 20.625C7.50645 20.625 7.28787 20.7155 7.12671 20.8767C6.96554 21.0379 6.875 21.2565 6.875 21.4844V23.2031C6.875 23.6775 7.26 24.0625 7.73438 24.0625H12.8906C13.1185 24.0625 13.3371 23.972 13.4983 23.8108C13.6595 23.6496 13.75 23.431 13.75 23.2031V21.4844C13.75 21.2565 13.6595 21.0379 13.4983 20.8767C13.3371 20.7155 13.1185 20.625 12.8906 20.625H7.73438ZM6.875 35.2344V36.9531C6.875 37.4275 7.26 37.8125 7.73438 37.8125H9.45312C9.68105 37.8125 9.89963 37.722 10.0608 37.5608C10.222 37.3996 10.3125 37.181 10.3125 36.9531V35.2344C10.3125 35.0065 10.222 34.7879 10.0608 34.6267C9.89963 34.4655 9.68105 34.375 9.45312 34.375H7.73438C7.50645 34.375 7.28787 34.4655 7.12671 34.6267C6.96554 34.7879 6.875 35.0065 6.875 35.2344ZM14.6094 34.375C14.3815 34.375 14.1629 34.4655 14.0017 34.6267C13.8405 34.7879 13.75 35.0065 13.75 35.2344V36.9531C13.75 37.4275 14.135 37.8125 14.6094 37.8125H33.5156C33.7435 37.8125 33.9621 37.722 34.1233 37.5608C34.2845 37.3996 34.375 37.181 34.375 36.9531V35.2344C34.375 35.0065 34.2845 34.7879 34.1233 34.6267C33.9621 34.4655 33.7435 34.375 33.5156 34.375H14.6094Z" fill="black"/>
</svg>
