<svg width="48" height="48" viewBox="0 0 48 48" fill="none" xmlns="http://www.w3.org/2000/svg">
<path d="M24 18.375C22.8875 18.375 21.7999 18.7049 20.8749 19.323C19.9499 19.9411 19.2289 20.8196 18.8032 21.8474C18.3774 22.8752 18.266 24.0062 18.4831 25.0974C18.7001 26.1885 19.2359 27.1908 20.0225 27.9775C20.8092 28.7641 21.8115 29.2999 22.9026 29.5169C23.9938 29.734 25.1248 29.6226 26.1526 29.1968C27.1804 28.7711 28.0589 28.0501 28.677 27.1251C29.2951 26.2001 29.625 25.1125 29.625 24C29.625 22.5082 29.0324 21.0774 27.9775 20.0225C26.9226 18.9676 25.4918 18.375 24 18.375ZM24 27.375C23.3325 27.375 22.68 27.1771 22.125 26.8062C21.5699 26.4354 21.1374 25.9083 20.8819 25.2916C20.6265 24.6749 20.5596 23.9963 20.6899 23.3416C20.8201 22.6869 21.1415 22.0855 21.6135 21.6135C22.0855 21.1415 22.6869 20.8201 23.3416 20.6898C23.9963 20.5596 24.6749 20.6265 25.2916 20.8819C25.9083 21.1374 26.4354 21.5699 26.8062 22.1249C27.1771 22.68 27.375 23.3325 27.375 24C27.375 24.8951 27.0194 25.7536 26.3865 26.3865C25.7536 27.0194 24.8951 27.375 24 27.375ZM9 18.375C7.88748 18.375 6.79995 18.7049 5.87492 19.323C4.94989 19.9411 4.22892 20.8196 3.80318 21.8474C3.37744 22.8752 3.26604 24.0062 3.48309 25.0974C3.70013 26.1885 4.23586 27.1908 5.02253 27.9775C5.8092 28.7641 6.81148 29.2999 7.90262 29.5169C8.99376 29.734 10.1248 29.6226 11.1526 29.1968C12.1804 28.7711 13.0589 28.0501 13.677 27.1251C14.2951 26.2001 14.625 25.1125 14.625 24C14.625 22.5082 14.0324 21.0774 12.9775 20.0225C11.9226 18.9676 10.4918 18.375 9 18.375ZM9 27.375C8.33249 27.375 7.67997 27.1771 7.12495 26.8062C6.56994 26.4354 6.13736 25.9083 5.88191 25.2916C5.62646 24.6749 5.55963 23.9963 5.68985 23.3416C5.82008 22.6869 6.14152 22.0855 6.61352 21.6135C7.08552 21.1415 7.68689 20.8201 8.34157 20.6898C8.99626 20.5596 9.67486 20.6265 10.2916 20.8819C10.9083 21.1374 11.4354 21.5699 11.8062 22.1249C12.1771 22.68 12.375 23.3325 12.375 24C12.375 24.8951 12.0194 25.7536 11.3865 26.3865C10.7536 27.0194 9.89511 27.375 9 27.375ZM39 18.375C37.8875 18.375 36.7999 18.7049 35.8749 19.323C34.9499 19.9411 34.2289 20.8196 33.8032 21.8474C33.3774 22.8752 33.266 24.0062 33.4831 25.0974C33.7001 26.1885 34.2359 27.1908 35.0225 27.9775C35.8092 28.7641 36.8115 29.2999 37.9026 29.5169C38.9938 29.734 40.1248 29.6226 41.1526 29.1968C42.1804 28.7711 43.0589 28.0501 43.677 27.1251C44.2951 26.2001 44.625 25.1125 44.625 24C44.625 22.5082 44.0324 21.0774 42.9775 20.0225C41.9226 18.9676 40.4918 18.375 39 18.375ZM39 27.375C38.3325 27.375 37.68 27.1771 37.125 26.8062C36.5699 26.4354 36.1374 25.9083 35.8819 25.2916C35.6265 24.6749 35.5596 23.9963 35.6899 23.3416C35.8201 22.6869 36.1415 22.0855 36.6135 21.6135C37.0855 21.1415 37.6869 20.8201 38.3416 20.6898C38.9963 20.5596 39.6749 20.6265 40.2916 20.8819C40.9083 21.1374 41.4354 21.5699 41.8062 22.1249C42.1771 22.68 42.375 23.3325 42.375 24C42.375 24.8951 42.0194 25.7536 41.3865 26.3865C40.7536 27.0194 39.8951 27.375 39 27.375Z" fill="black"/>
</svg>
