<svg width="48" height="48" viewBox="0 0 48 48" fill="none" xmlns="http://www.w3.org/2000/svg">
<g clip-path="url(#clip0_2549_820)">
<path d="M13.7144 24H34.2858M36.0001 1.71428H12.0001C9.27213 1.71428 6.65592 2.79795 4.72697 4.7269C2.79803 6.65584 1.71436 9.27205 1.71436 12V36C1.71436 38.7279 2.79803 41.3441 4.72697 43.2731C6.65592 45.202 9.27213 46.2857 12.0001 46.2857H36.0001C38.728 46.2857 41.3442 45.202 43.2732 43.2731C45.2021 41.3441 46.2858 38.7279 46.2858 36V12C46.2858 9.27205 45.2021 6.65584 43.2732 4.7269C41.3442 2.79795 38.728 1.71428 36.0001 1.71428Z" stroke="black" stroke-width="3.42857" stroke-linecap="round" stroke-linejoin="round"/>
</g>
<defs>
<clipPath id="clip0_2549_820">
<rect width="48" height="48" fill="white"/>
</clipPath>
</defs>
</svg>
