<svg width="48" height="48" viewBox="0 0 48 48" fill="none" xmlns="http://www.w3.org/2000/svg">
<g clip-path="url(#clip0_2549_1476)">
<path d="M13.7144 24.0001H34.2858M36.0001 1.71436H12.0001C9.27213 1.71436 6.65592 2.79803 4.72697 4.72697C2.79803 6.65592 1.71436 9.27213 1.71436 12.0001V36.0001C1.71436 38.728 2.79803 41.3442 4.72697 43.2732C6.65592 45.2021 9.27213 46.2858 12.0001 46.2858H36.0001C38.728 46.2858 41.3442 45.2021 43.2732 43.2732C45.2021 41.3442 46.2858 38.728 46.2858 36.0001V12.0001C46.2858 9.27213 45.2021 6.65592 43.2732 4.72697C41.3442 2.79803 38.728 1.71436 36.0001 1.71436Z" stroke="#FF7E3A" stroke-width="3.42857" stroke-linecap="round" stroke-linejoin="round"/>
</g>
<defs>
<clipPath id="clip0_2549_1476">
<rect width="48" height="48" fill="white"/>
</clipPath>
</defs>
</svg>
