<svg width="48" height="48" viewBox="0 0 48 48" fill="none" xmlns="http://www.w3.org/2000/svg">
<path d="M46.8909 8.38232L39.6177 1.10905C39.2656 0.75722 38.8477 0.478189 38.3878 0.287896C37.9279 0.0976023 37.435 -0.000225118 36.9373 3.88981e-07C35.9646 3.88981e-07 34.9971 0.368842 34.2568 1.10905L25.2632 10.1053H2.52632C1.8563 10.1053 1.21372 10.3714 0.739941 10.8452C0.266165 11.319 0 11.9616 0 12.6316V45.4737C0 46.1437 0.266165 46.7863 0.739941 47.2601C1.21372 47.7338 1.8563 48 2.52632 48H35.3684C36.0384 48 36.681 47.7338 37.1548 47.2601C37.6286 46.7863 37.8947 46.1437 37.8947 45.4737V22.7368L46.8909 13.7406C47.6312 13.0004 48 12.0303 48 11.0602C48 10.0901 47.6312 9.12253 46.8909 8.38232ZM21.4737 32.0135L15.9865 26.5263L31.8846 10.6282L37.3718 16.1154L21.4737 32.0135ZM15.0038 28.6307L19.44 32.9962L15.1579 32.8421L15.0038 28.6307ZM32.8421 42.9474H5.05263V15.1579H20.2105L12.1768 23.1916C11.4366 23.9318 10.9693 25.2429 10.5878 26.448C10.1836 27.7112 10.1053 29.1158 10.1053 30.1617V37.8947H17.8383C18.8842 37.8947 20.6375 37.6421 21.8072 37.1621C22.9794 36.6821 24.0707 36.2855 24.8084 35.5453L32.8421 27.7895V42.9474ZM39.1579 14.3293L33.6707 8.84211L36.9373 5.57558L42.4219 11.0627L39.1579 14.3293Z" fill="black"/>
</svg>
